<svg xmlns="http://www.w3.org/2000/svg" viewBox="0 0 13.98 13.95"><defs><style>.cls-1{fill:#f8b032;}</style></defs><title>ico--twitter</title><g id="Layer_2" data-name="Layer 2"><g id="Camada_1" data-name="Camada 1"><path class="cls-1" d="M7,0h3.06A3.8,3.8,0,0,1,14,3.84c0,2.08,0,4.17,0,6.25a3.8,3.8,0,0,1-3.88,3.85H3.92A3.8,3.8,0,0,1,0,10.1C0,8,0,5.94,0,3.86A3.81,3.81,0,0,1,4,0ZM1.24,7V10a2.57,2.57,0,0,0,2.52,2.7q3.24.07,6.46,0a2.57,2.57,0,0,0,2.52-2.66q0-3.08,0-6.16a2.55,2.55,0,0,0-2.52-2.65c-2.15-.05-4.31-.05-6.46,0A2.56,2.56,0,0,0,1.24,3.9C1.23,4.92,1.24,5.94,1.24,7Z"/><g id="_4gy4aa" data-name="4gy4aa"><path class="cls-1" d="M11.76,4.15c-.11.14-.21.28-.33.41s-.32.3-.48.44a.17.17,0,0,0-.08.17A5.32,5.32,0,0,1,9.11,9.23,4.76,4.76,0,0,1,6.4,10.48,5.23,5.23,0,0,1,3,9.79l-.09,0s0,0,0,0A3.69,3.69,0,0,0,5.53,9,1.87,1.87,0,0,1,3.82,7.67a1.9,1.9,0,0,0,.79,0,1.92,1.92,0,0,1-1-.66,1.8,1.8,0,0,1-.4-1.16A2.08,2.08,0,0,0,4,6a1.83,1.83,0,0,1-.8-1.41,1.74,1.74,0,0,1,.24-1A5.27,5.27,0,0,0,7.2,5.51a5.27,5.27,0,0,1,0-.69,1.84,1.84,0,0,1,1.6-1.56,1.88,1.88,0,0,1,1.51.52.12.12,0,0,0,.12,0,3.25,3.25,0,0,0,1-.35l.13-.07a2,2,0,0,1-.76,1,3.39,3.39,0,0,0,1-.26Z"/></g></g></g></svg>