<svg xmlns="http://www.w3.org/2000/svg" viewBox="0 0 13.98 13.95"><defs><style>.cls-1{fill:#f8b032;}</style></defs><title>ico--likedin</title><g id="Layer_2" data-name="Layer 2"><g id="Camada_1" data-name="Camada 1"><path class="cls-1" d="M7,0h3.06A3.8,3.8,0,0,1,14,3.84c0,2.08,0,4.17,0,6.25a3.8,3.8,0,0,1-3.88,3.85H3.92A3.8,3.8,0,0,1,0,10.1C0,8,0,5.94,0,3.86A3.81,3.81,0,0,1,4,0ZM1.24,7V10a2.57,2.57,0,0,0,2.52,2.7q3.24.07,6.46,0a2.57,2.57,0,0,0,2.52-2.66q0-3.08,0-6.16a2.55,2.55,0,0,0-2.52-2.65c-2.15-.05-4.31-.05-6.46,0A2.56,2.56,0,0,0,1.24,3.9C1.23,4.92,1.24,5.94,1.24,7Z"/><g id="_6ugICj" data-name="6ugICj"><path class="cls-1" d="M9.22,10.59V7.85a1.88,1.88,0,0,0-.07-.53.8.8,0,0,0-1.32-.39.91.91,0,0,0-.33.71v3H5.75V5.46H7.49v.62l0,0a.06.06,0,0,0,0,0A1.72,1.72,0,0,1,9,5.33a1.91,1.91,0,0,1,1.23.42,1.89,1.89,0,0,1,.61,1A2.91,2.91,0,0,1,11,7.6v3Z"/><path class="cls-1" d="M3.12,5.45H4.86V10.6H3.12Z"/><path class="cls-1" d="M4,4.81a.92.92,0,0,1-.76-.31.87.87,0,0,1-.17-.9A.85.85,0,0,1,3.76,3a1.15,1.15,0,0,1,.73.08A.88.88,0,0,1,5,4a.86.86,0,0,1-.66.79.51.51,0,0,1-.17,0Z"/></g></g></g></svg>