<svg xmlns="http://www.w3.org/2000/svg" viewBox="0 0 13.98 13.95"><defs><style>.cls-1{fill:#f8b032;}</style></defs><title>ico--instagram</title><g id="Layer_2" data-name="Layer 2"><g id="Camada_1" data-name="Camada 1"><path class="cls-1" d="M7,0h3.06A3.8,3.8,0,0,1,14,3.84c0,2.08,0,4.17,0,6.25a3.8,3.8,0,0,1-3.88,3.85H3.92A3.8,3.8,0,0,1,0,10.1C0,8,0,5.94,0,3.86A3.81,3.81,0,0,1,4,0ZM1.24,7V10a2.57,2.57,0,0,0,2.52,2.7q3.24.07,6.46,0a2.57,2.57,0,0,0,2.52-2.66q0-3.08,0-6.16a2.55,2.55,0,0,0-2.52-2.65c-2.15-.05-4.31-.05-6.46,0A2.56,2.56,0,0,0,1.24,3.9C1.23,4.92,1.24,5.94,1.24,7Z"/><path class="cls-1" d="M10.58,7A3.59,3.59,0,1,1,7,3.38,3.61,3.61,0,0,1,10.58,7ZM7,9.33A2.36,2.36,0,1,0,4.62,7,2.37,2.37,0,0,0,7,9.33Z"/><path class="cls-1" d="M10.73,4.12a.91.91,0,0,1-.9-.9,1,1,0,0,1,.92-.9.9.9,0,0,1,.88.91A.88.88,0,0,1,10.73,4.12Z"/></g></g></svg>