<svg xmlns="http://www.w3.org/2000/svg" viewBox="0 0 13.98 13.95"><defs><style>.cls-1{fill:#f8b032;}</style></defs><title>ico--facebook</title><g id="Layer_2" data-name="Layer 2"><g id="Camada_1" data-name="Camada 1"><path class="cls-1" d="M7,0h3.06A3.8,3.8,0,0,1,14,3.84c0,2.08,0,4.17,0,6.25a3.8,3.8,0,0,1-3.88,3.85H3.92A3.8,3.8,0,0,1,0,10.1C0,8,0,5.94,0,3.86A3.81,3.81,0,0,1,4,0ZM1.24,7V10a2.57,2.57,0,0,0,2.52,2.7q3.24.07,6.46,0a2.57,2.57,0,0,0,2.52-2.66q0-3.08,0-6.16a2.55,2.55,0,0,0-2.52-2.65c-2.15-.05-4.31-.05-6.46,0A2.56,2.56,0,0,0,1.24,3.9C1.23,4.92,1.24,5.94,1.24,7Z"/><g id="_6X2MeM" data-name="6X2MeM"><path class="cls-1" d="M7.66,6.48H9.1c.2,0,.27.07.27.26V8.26c0,.19-.07.26-.26.26H7.66v4c0,.22-.07.29-.29.29H5.84c-.21,0-.28-.07-.28-.28v-4H4.33c-.2,0-.27-.07-.27-.27V6.75c0-.2.08-.27.28-.27H5.56V5.39A2.74,2.74,0,0,1,5.9,4,2.1,2.1,0,0,1,7,3.07a2.75,2.75,0,0,1,1-.16H9.18c.17,0,.25.08.25.26V4.58c0,.18-.07.25-.25.25l-1,0a.46.46,0,0,0-.44.24.83.83,0,0,0-.08.28Z"/></g></g></g></svg>