<svg xmlns="http://www.w3.org/2000/svg" viewBox="0 0 147.62 50.34"><defs><style>.cls-1{opacity:0.4;}.cls-2{fill:#f19004;}.cls-3{opacity:0.1;}.cls-4{fill:#f8b032;}</style></defs><title>Asset 1</title><g id="Layer_2" data-name="Layer 2"><g id="Camada_1" data-name="Camada 1"><g class="cls-1"><path class="cls-2" d="M0,17.25V12.74a.86.86,0,0,1,.85-.84.87.87,0,0,1,.85.84v4.51a.68.68,0,0,0,.67.65H13a.85.85,0,1,1,0,1.7H2.45A2.4,2.4,0,0,1,0,17.25Z"/></g><g class="cls-3"><path class="cls-2" d="M0,5.35V.85A.86.86,0,0,1,.88,0a.88.88,0,0,1,.85.85v4.5A.68.68,0,0,0,2.4,6H13a.85.85,0,0,1,.85.84A.86.86,0,0,1,13,7.7H2.45A2.4,2.4,0,0,1,0,5.35Z"/></g><g class="cls-1"><path class="cls-2" d="M.25,41.2V36.7a.86.86,0,0,1,.85-.85.87.87,0,0,1,.84.85v4.5a.68.68,0,0,0,.67.66h10.6a.85.85,0,1,1,0,1.69H2.67A2.39,2.39,0,0,1,.25,41.2Z"/></g><g class="cls-1"><path class="cls-2" d="M52.08,20.57a.84.84,0,0,1-1.5-.53.77.77,0,0,1,.17-.51l4.3-5.77a2.3,2.3,0,0,1,1.85-.92,2.21,2.21,0,0,1,1.78.86L63,19.44a.92.92,0,0,1,.24.6.85.85,0,0,1-.84.85.82.82,0,0,1-.67-.33l-4.12-5.5c-.16-.19-.42-.47-.69-.47s-.53.3-.67.47Z"/></g><g class="cls-3"><path class="cls-2" d="M52.29,9.54a.87.87,0,0,1-.65.32A.86.86,0,0,1,50.79,9,.73.73,0,0,1,51,8.5l4.29-5.78a2.33,2.33,0,0,1,1.86-.92,2.22,2.22,0,0,1,1.78.87l4.29,5.74a.93.93,0,0,1,.25.6.86.86,0,0,1-.85.85.85.85,0,0,1-.67-.34L57.81,4c-.16-.2-.43-.48-.69-.48s-.53.3-.68.48Z"/></g><g class="cls-1"><path class="cls-4" d="M85.79,33.74h10.3a.85.85,0,0,1,0,1.7H86.17a1.93,1.93,0,0,0-2,2.15,1.93,1.93,0,0,0,2,2.16h9.92a.86.86,0,0,1,.85.85.85.85,0,0,1-.85.84H85.62c-1.93,0-3.08-2.1-3.08-3.85S83.76,33.74,85.79,33.74Z"/></g><g class="cls-3"><path class="cls-4" d="M86.23,42.64h10.3a.85.85,0,0,1,0,1.69H86.6a2.16,2.16,0,0,0,0,4.31h9.93a.85.85,0,0,1,0,1.7H86.05c-1.93,0-3.07-2.1-3.07-3.85S84.2,42.64,86.23,42.64Z"/></g><g class="cls-1"><path class="cls-4" d="M110,21.75h-8.06c-1.92-.1-3.07-2.1-3.07-3.85s1.22-3.85,3.25-3.85h8.05c1.93.11,3.08,2.11,3.08,3.85S112,21.75,110,21.75Zm1.6-3.85a1.92,1.92,0,0,0-2-2.15h-7.14a1.93,1.93,0,0,0-2,2.15,1.93,1.93,0,0,0,2,2.16h7.14A1.93,1.93,0,0,0,111.58,17.9Z"/></g><g class="cls-1"><path class="cls-4" d="M127.56,19.84a1.92,1.92,0,0,0,2-2.15,1.93,1.93,0,0,0-2-2.16h-9.93a.85.85,0,1,1,0-1.69h10.3c2,0,3.25,2.06,3.25,3.85s-1.15,3.74-3.08,3.85H117.63a.86.86,0,0,1-.85-.85v-3a.85.85,0,0,1,1.7,0v2.15Z"/></g><g class="cls-3"><path class="cls-4" d="M127.56,10.32a1.93,1.93,0,0,0,2-2.16,1.92,1.92,0,0,0-2-2.15h-9.93a.85.85,0,0,1,0-1.7h10.3c2,0,3.25,2.07,3.25,3.85S130,11.91,128.1,12H117.63a.86.86,0,0,1-.85-.84v-3a.85.85,0,1,1,1.7,0v2.16Z"/></g><g class="cls-1"><path class="cls-4" d="M134.25,33.51h12.52a.85.85,0,0,1,0,1.7H134.25a.85.85,0,1,1,0-1.7Zm1.31,7.71a2.27,2.27,0,0,1-2.16-2.32V37.31c0-.63.36-.79,1.13-.79h11.86a.85.85,0,0,1,0,1.69H135.1v.87a.5.5,0,0,0,.55.44h11.12a.85.85,0,1,1,0,1.7Z"/></g><path class="cls-2" d="M0,29.24v-4.5a.86.86,0,0,1,.85-.85.88.88,0,0,1,.85.85v4.5a.67.67,0,0,0,.67.66H13a.85.85,0,0,1,0,1.69H2.42A2.39,2.39,0,0,1,0,29.24Z"/><path class="cls-2" d="M17.31,23.89H29.83a.85.85,0,0,1,0,1.7H17.31a.85.85,0,0,1,0-1.7Zm1.31,7.7a2.25,2.25,0,0,1-2.16-2.31V27.69c0-.64.35-.8,1.13-.8H29.44a.85.85,0,0,1,0,1.7H18.16v.87a.5.5,0,0,0,.54.44H29.83a.85.85,0,1,1,0,1.69Z"/><path class="cls-2" d="M38.84,26.89H45.6a2.12,2.12,0,0,1,2.12,2.16v.39a2.11,2.11,0,0,1-2.12,2.15H36.4c-1.92,0-3.07-2.1-3.07-3.85s1.22-3.85,3.25-3.85h10.3a.85.85,0,0,1,0,1.7H37a1.92,1.92,0,0,0-2,2.15,1.93,1.93,0,0,0,2,2.16h8.56a.63.63,0,0,0,.55-.66.59.59,0,0,0-.55-.65H38.84a.85.85,0,0,1,0-1.7Z"/><path class="cls-2" d="M51.87,31.28a.85.85,0,0,1-1.5-.53.75.75,0,0,1,.18-.52l4.29-5.77a2.32,2.32,0,0,1,1.85-.92,2.25,2.25,0,0,1,1.79.86l4.29,5.75a.91.91,0,0,1,.25.6.86.86,0,0,1-.85.84.84.84,0,0,1-.67-.33l-4.12-5.5c-.16-.19-.42-.47-.69-.47s-.53.3-.67.47Z"/><path class="cls-2" d="M65.67,29.24v-4.5a.85.85,0,0,1,.84-.85.87.87,0,0,1,.85.85v4.5a.68.68,0,0,0,.67.66h10.6a.85.85,0,1,1,0,1.69H68.09A2.39,2.39,0,0,1,65.67,29.24Z"/><path class="cls-4" d="M85.38,23.89h10.3a.85.85,0,0,1,0,1.7H85.75a1.92,1.92,0,0,0-2,2.15,1.93,1.93,0,0,0,2,2.16h9.93a.85.85,0,0,1,0,1.69H85.2c-1.93,0-3.07-2.1-3.07-3.85S83.35,23.89,85.38,23.89Z"/><path class="cls-4" d="M110.3,31.59h-8.06c-1.92-.1-3.07-2.1-3.07-3.85s1.22-3.85,3.25-3.85h8.06c1.92.11,3.07,2.1,3.07,3.85S112.33,31.59,110.3,31.59Zm1.61-3.85a1.93,1.93,0,0,0-2-2.15h-7.14a1.93,1.93,0,0,0-2,2.15,1.93,1.93,0,0,0,2,2.16h7.14A1.93,1.93,0,0,0,111.91,27.74Z"/><path class="cls-4" d="M127,29.9a1.93,1.93,0,0,0,2-2.16,1.92,1.92,0,0,0-2-2.15H117a.85.85,0,0,1,0-1.7h10.3c2,0,3.25,2.07,3.25,3.85s-1.15,3.75-3.07,3.85H117a.85.85,0,0,1-.84-.84v-3a.85.85,0,0,1,.84-.85.86.86,0,0,1,.85.85V29.9Z"/><path class="cls-4" d="M134.09,23.89h12.52a.85.85,0,1,1,0,1.7H134.09a.85.85,0,1,1,0-1.7Zm1.3,7.7a2.25,2.25,0,0,1-2.15-2.31V27.69c0-.64.35-.8,1.13-.8h11.85a.85.85,0,1,1,0,1.7H134.93v.87a.5.5,0,0,0,.55.44h11.13a.85.85,0,1,1,0,1.69Z"/></g></g></svg>