<?xml version="1.0" standalone="no"?>
<!DOCTYPE svg PUBLIC "-//W3C//DTD SVG 20010904//EN"
 "http://www.w3.org/TR/2001/REC-SVG-20010904/DTD/svg10.dtd">
<svg version="1.0" xmlns="http://www.w3.org/2000/svg"
 width="82.000000pt" height="82.000000pt" viewBox="0 0 82.000000 82.000000"
 preserveAspectRatio="xMidYMid meet">
<metadata>
Created by potrace 1.11, written by Peter Selinger 2001-2013
</metadata>
<g transform="translate(0.000000,82.000000) scale(0.100000,-0.100000)"
fill="#000000" stroke="none">
<path d="M144 804 c5 -10 10 -36 13 -56 3 -21 11 -38 17 -39 6 0 20 -2 31 -4
11 -1 42 -6 68 -9 l49 -6 -7 33 c-15 67 -22 75 -67 82 -24 3 -58 9 -77 12 -31
5 -33 4 -27 -13z"/>
<path d="M399 728 c17 -50 20 -53 60 -61 24 -5 45 -6 49 -3 3 3 -1 24 -8 47
-14 41 -26 50 -87 63 l-32 7 18 -53z"/>
<path d="M557 688 c9 -24 17 -44 17 -45 1 -1 13 -4 28 -8 28 -7 28 -7 17 26
-12 35 -44 68 -66 69 -10 0 -9 -11 4 -42z"/>
<path d="M194 551 c2 -25 5 -56 5 -68 1 -22 5 -23 80 -23 l79 0 -4 58 c-3 31
-8 60 -12 64 -4 3 -40 8 -80 10 l-72 5 4 -46z"/>
<path d="M439 570 c-1 -3 0 -21 1 -40 6 -80 2 -75 58 -77 50 -1 52 -1 51 25
-1 15 -4 41 -8 57 -6 27 -11 31 -54 35 -26 3 -47 3 -48 0z"/>
<path d="M597 512 c7 -57 11 -62 38 -62 20 0 25 5 25 24 0 44 -16 71 -43 74
-24 2 -25 -1 -20 -36z"/>
<path d="M449 355 c0 -5 -2 -19 -4 -30 -2 -11 -5 -33 -7 -50 -3 -29 -3 -30 42
-26 25 1 48 6 52 9 4 4 10 31 14 59 l7 53 -52 -2 c-28 -2 -51 -7 -52 -13z"/>
<path d="M600 336 c0 -19 -3 -41 -6 -50 -4 -11 0 -16 12 -16 32 0 46 16 51 59
5 40 4 41 -26 41 -29 0 -31 -3 -31 -34z"/>
<path d="M200 343 c0 -10 -3 -41 -6 -69 l-6 -51 74 4 c40 3 76 8 79 12 4 3 9
32 13 64 l6 57 -80 0 c-69 0 -80 -2 -80 -17z"/>
<path d="M589 183 c-21 -5 -50 -93 -31 -93 18 0 42 27 57 63 16 38 13 41 -26
30z"/>
<path d="M452 150 c-41 -10 -39 -7 -56 -64 l-14 -47 31 7 c63 13 76 22 86 61
17 59 18 58 -47 43z"/>
<path d="M289 126 c-2 -3 -28 -6 -57 -7 -29 -2 -56 -7 -61 -13 -9 -12 -32 -99
-27 -103 2 -2 37 2 78 8 l74 11 12 44 c7 24 12 49 12 54 0 10 -23 14 -31 6z"/>
</g>
</svg>
