<?xml version="1.0" standalone="no"?>
<!DOCTYPE svg PUBLIC "-//W3C//DTD SVG 20010904//EN"
 "http://www.w3.org/TR/2001/REC-SVG-20010904/DTD/svg10.dtd">
<svg version="1.0" xmlns="http://www.w3.org/2000/svg"
 width="96.000000pt" height="96.000000pt" viewBox="0 0 96.000000 96.000000"
 preserveAspectRatio="xMidYMid meet">
<metadata>
Created by potrace 1.11, written by Peter Selinger 2001-2013
</metadata>
<g transform="translate(0.000000,96.000000) scale(0.100000,-0.100000)"
fill="#000000" stroke="none">
<path d="M0 480 l0 -480 480 0 480 0 0 480 0 480 -480 0 -480 0 0 -480z m150
24 l5 -69 143 -3 c134 -2 142 -4 142 -22 0 -19 -7 -20 -145 -20 -179 0 -185 3
-185 108 0 38 3 72 7 76 17 17 28 -6 33 -70z m705 56 c0 -12 -23 -15 -135 -18
-144 -3 -170 -11 -170 -57 0 -46 26 -54 170 -57 112 -3 135 -6 135 -18 0 -13
-24 -15 -146 -18 -145 -3 -145 -2 -170 24 -34 36 -34 102 0 138 25 26 25 27
170 24 122 -3 146 -5 146 -18z"/>
</g>
</svg>
